<svg class="trace" viewBox="0 0 1200 160" preserveAspectRatio="none" aria-hidden="true"><line class="grid" x1="0" y1="110" x2="1200" y2="110"/><path class="beat" d="M0.0,110.0 L20.0,110.0 L28.0,100.0 L40.0,100.0 L48.0,110.0 L72.0,110.0 L78.0,118.0 L84.0,30.0 L90.0,128.0 L96.0,110.0 L120.0,110.0 L132.0,94.0 L148.0,94.0 L160.0,110.0 L200.0,110.0 L200.0,110.0 L220.0,110.0 L228.0,100.0 L240.0,100.0 L248.0,110.0 L272.0,110.0 L278.0,118.0 L284.0,30.0 L290.0,128.0 L296.0,110.0 L320.0,110.0 L332.0,94.0 L348.0,94.0 L360.0,110.0 L400.0,110.0 L400.0,110.0 L420.0,110.0 L428.0,100.0 L440.0,100.0 L448.0,110.0 L472.0,110.0 L478.0,118.0 L484.0,30.0 L490.0,128.0 L496.0,110.0 L520.0,110.0 L532.0,94.0 L548.0,94.0 L560.0,110.0 L600.0,110.0 L600.0,110.0 L620.0,110.0 L628.0,100.0 L640.0,100.0 L648.0,110.0 L672.0,110.0 L678.0,118.0 L684.0,30.0 L690.0,128.0 L696.0,110.0 L720.0,110.0 L732.0,94.0 L748.0,94.0 L760.0,110.0 L800.0,110.0 L800.0,110.0 L820.0,110.0 L828.0,100.0 L840.0,100.0 L848.0,110.0 L872.0,110.0 L878.0,118.0 L884.0,30.0 L890.0,128.0 L896.0,110.0 L920.0,110.0 L932.0,94.0 L948.0,94.0 L960.0,110.0 L1000.0,110.0 L1000.0,110.0 L1020.0,110.0 L1028.0,100.0 L1040.0,100.0 L1048.0,110.0 L1072.0,110.0 L1078.0,118.0 L1084.0,30.0 L1090.0,128.0 L1096.0,110.0 L1120.0,110.0 L1132.0,94.0 L1148.0,94.0 L1160.0,110.0 L1200.0,110.0"/></svg>